<mxfile host="app.diagrams.net" modified="2021-12-03T07:10:16.022Z" agent="5.0 (Macintosh; Intel Mac OS X 10_15_7) AppleWebKit/537.36 (KHTML, like Gecko) Chrome/96.0.4664.45 Safari/537.36" etag="NsV0ybtTcZlZWbTXNvR0" version="15.8.9" type="github">
  <diagram id="oD7USScEUBKT-Afy-Ol1" name="Page-1">
    <mxGraphModel dx="1678" dy="2078" grid="1" gridSize="10" guides="1" tooltips="1" connect="1" arrows="1" fold="1" page="1" pageScale="1" pageWidth="827" pageHeight="1169" math="0" shadow="0">
      <root>
        <mxCell id="0" />
        <mxCell id="1" parent="0" />
        <mxCell id="8uS4dwk1S0mfI39mXYLx-16" value="" style="rounded=0;whiteSpace=wrap;html=1;fontSize=12;fillColor=#fff2cc;strokeColor=#d6b656;" vertex="1" parent="1">
          <mxGeometry x="250" width="400" height="120" as="geometry" />
        </mxCell>
        <mxCell id="8uS4dwk1S0mfI39mXYLx-5" style="edgeStyle=orthogonalEdgeStyle;rounded=0;orthogonalLoop=1;jettySize=auto;html=1;entryX=0;entryY=0.5;entryDx=0;entryDy=0;fontSize=18;exitX=1;exitY=0.5;exitDx=0;exitDy=0;" edge="1" parent="1" source="8uS4dwk1S0mfI39mXYLx-7" target="8uS4dwk1S0mfI39mXYLx-4">
          <mxGeometry relative="1" as="geometry">
            <mxPoint x="690" y="60" as="sourcePoint" />
          </mxGeometry>
        </mxCell>
        <mxCell id="8uS4dwk1S0mfI39mXYLx-14" value="Output&lt;br&gt;batches of&lt;br&gt;processed&lt;br&gt;data" style="edgeLabel;html=1;align=center;verticalAlign=middle;resizable=0;points=[];fontSize=12;" vertex="1" connectable="0" parent="8uS4dwk1S0mfI39mXYLx-5">
          <mxGeometry x="-0.0429" y="-1" relative="1" as="geometry">
            <mxPoint as="offset" />
          </mxGeometry>
        </mxCell>
        <mxCell id="8uS4dwk1S0mfI39mXYLx-3" style="edgeStyle=orthogonalEdgeStyle;rounded=0;orthogonalLoop=1;jettySize=auto;html=1;fontSize=18;entryX=0;entryY=0.5;entryDx=0;entryDy=0;" edge="1" parent="1" source="8uS4dwk1S0mfI39mXYLx-2" target="8uS4dwk1S0mfI39mXYLx-6">
          <mxGeometry relative="1" as="geometry">
            <mxPoint x="230" y="60" as="targetPoint" />
          </mxGeometry>
        </mxCell>
        <mxCell id="8uS4dwk1S0mfI39mXYLx-12" value="Input&lt;br&gt;data stream" style="edgeLabel;html=1;align=center;verticalAlign=middle;resizable=0;points=[];fontSize=12;" vertex="1" connectable="0" parent="8uS4dwk1S0mfI39mXYLx-3">
          <mxGeometry x="-0.0714" relative="1" as="geometry">
            <mxPoint as="offset" />
          </mxGeometry>
        </mxCell>
        <mxCell id="8uS4dwk1S0mfI39mXYLx-2" value="&lt;font style=&quot;font-size: 18px&quot;&gt;Kafka&lt;/font&gt;" style="rounded=0;whiteSpace=wrap;html=1;" vertex="1" parent="1">
          <mxGeometry x="30" y="30" width="120" height="60" as="geometry" />
        </mxCell>
        <mxCell id="8uS4dwk1S0mfI39mXYLx-4" value="OSS" style="rounded=0;whiteSpace=wrap;html=1;fontSize=18;" vertex="1" parent="1">
          <mxGeometry x="760" y="30" width="120" height="60" as="geometry" />
        </mxCell>
        <mxCell id="8uS4dwk1S0mfI39mXYLx-8" style="edgeStyle=orthogonalEdgeStyle;rounded=0;orthogonalLoop=1;jettySize=auto;html=1;exitX=1;exitY=0.5;exitDx=0;exitDy=0;entryX=0;entryY=0.5;entryDx=0;entryDy=0;fontSize=18;" edge="1" parent="1" source="8uS4dwk1S0mfI39mXYLx-6" target="8uS4dwk1S0mfI39mXYLx-7">
          <mxGeometry relative="1" as="geometry" />
        </mxCell>
        <mxCell id="8uS4dwk1S0mfI39mXYLx-15" value="&lt;span style=&quot;background-color: rgb(248 , 249 , 250)&quot;&gt;Divide&lt;/span&gt;&lt;br style=&quot;background-color: rgb(248 , 249 , 250)&quot;&gt;&lt;span style=&quot;background-color: rgb(248 , 249 , 250)&quot;&gt;data into&lt;/span&gt;&lt;br style=&quot;background-color: rgb(248 , 249 , 250)&quot;&gt;&lt;span style=&quot;background-color: rgb(248 , 249 , 250)&quot;&gt;batches&lt;/span&gt;" style="edgeLabel;html=1;align=center;verticalAlign=middle;resizable=0;points=[];fontSize=12;" vertex="1" connectable="0" parent="8uS4dwk1S0mfI39mXYLx-8">
          <mxGeometry x="-0.0286" relative="1" as="geometry">
            <mxPoint as="offset" />
          </mxGeometry>
        </mxCell>
        <mxCell id="8uS4dwk1S0mfI39mXYLx-6" value="Spark Streaming" style="rounded=0;whiteSpace=wrap;html=1;fontSize=18;fillColor=#f8cecc;strokeColor=#b85450;" vertex="1" parent="1">
          <mxGeometry x="270" y="30" width="120" height="60" as="geometry" />
        </mxCell>
        <mxCell id="8uS4dwk1S0mfI39mXYLx-7" value="Spark engine" style="rounded=0;whiteSpace=wrap;html=1;fontSize=18;fillColor=#f8cecc;strokeColor=#b85450;" vertex="1" parent="1">
          <mxGeometry x="500" y="30" width="120" height="60" as="geometry" />
        </mxCell>
        <mxCell id="8uS4dwk1S0mfI39mXYLx-17" value="Spark" style="text;html=1;strokeColor=none;fillColor=none;align=center;verticalAlign=middle;whiteSpace=wrap;rounded=0;fontSize=26;" vertex="1" parent="1">
          <mxGeometry x="414" y="-40" width="60" height="30" as="geometry" />
        </mxCell>
        <mxCell id="8uS4dwk1S0mfI39mXYLx-20" style="edgeStyle=orthogonalEdgeStyle;rounded=0;orthogonalLoop=1;jettySize=auto;html=1;exitX=1;exitY=0.5;exitDx=0;exitDy=0;entryX=0;entryY=0.5;entryDx=0;entryDy=0;fontSize=18;" edge="1" parent="1" source="8uS4dwk1S0mfI39mXYLx-19">
          <mxGeometry relative="1" as="geometry">
            <mxPoint x="270" y="780" as="targetPoint" />
          </mxGeometry>
        </mxCell>
        <mxCell id="8uS4dwk1S0mfI39mXYLx-19" value="Kafka Topic" style="rounded=0;whiteSpace=wrap;html=1;fontSize=18;" vertex="1" parent="1">
          <mxGeometry x="30" y="750" width="120" height="60" as="geometry" />
        </mxCell>
        <mxCell id="8uS4dwk1S0mfI39mXYLx-25" style="edgeStyle=orthogonalEdgeStyle;rounded=0;orthogonalLoop=1;jettySize=auto;html=1;exitX=1;exitY=0.5;exitDx=0;exitDy=0;entryX=0;entryY=0.5;entryDx=0;entryDy=0;fontSize=18;" edge="1" parent="1" source="8uS4dwk1S0mfI39mXYLx-21" target="8uS4dwk1S0mfI39mXYLx-24">
          <mxGeometry relative="1" as="geometry" />
        </mxCell>
        <mxCell id="8uS4dwk1S0mfI39mXYLx-21" value="DataFrame&lt;br&gt;(Per batch)" style="rounded=0;whiteSpace=wrap;html=1;fontSize=18;" vertex="1" parent="1">
          <mxGeometry x="500" y="750" width="120" height="60" as="geometry" />
        </mxCell>
        <mxCell id="8uS4dwk1S0mfI39mXYLx-23" style="edgeStyle=orthogonalEdgeStyle;rounded=0;orthogonalLoop=1;jettySize=auto;html=1;exitX=1;exitY=0.5;exitDx=0;exitDy=0;entryX=0;entryY=0.5;entryDx=0;entryDy=0;fontSize=18;" edge="1" parent="1" source="8uS4dwk1S0mfI39mXYLx-22" target="8uS4dwk1S0mfI39mXYLx-21">
          <mxGeometry relative="1" as="geometry" />
        </mxCell>
        <mxCell id="8uS4dwk1S0mfI39mXYLx-22" value="DataFrame&lt;br&gt;(Per time)" style="rounded=0;whiteSpace=wrap;html=1;fontSize=18;" vertex="1" parent="1">
          <mxGeometry x="270" y="750" width="120" height="60" as="geometry" />
        </mxCell>
        <mxCell id="8uS4dwk1S0mfI39mXYLx-24" value="Json&lt;br&gt;(Batch)" style="rounded=0;whiteSpace=wrap;html=1;fontSize=18;" vertex="1" parent="1">
          <mxGeometry x="760" y="750" width="120" height="60" as="geometry" />
        </mxCell>
        <mxCell id="8uS4dwk1S0mfI39mXYLx-26" value="1. Input to Spark" style="swimlane;fontStyle=0;childLayout=stackLayout;horizontal=1;startSize=30;horizontalStack=0;resizeParent=1;resizeParentMax=0;resizeLast=0;collapsible=1;marginBottom=0;fontSize=14;" vertex="1" parent="1">
          <mxGeometry x="120" y="140" width="140" height="120" as="geometry" />
        </mxCell>
        <mxCell id="8uS4dwk1S0mfI39mXYLx-27" value="Create session" style="text;strokeColor=none;fillColor=none;align=left;verticalAlign=middle;spacingLeft=4;spacingRight=4;overflow=hidden;points=[[0,0.5],[1,0.5]];portConstraint=eastwest;rotatable=0;fontSize=14;" vertex="1" parent="8uS4dwk1S0mfI39mXYLx-26">
          <mxGeometry y="30" width="140" height="30" as="geometry" />
        </mxCell>
        <mxCell id="8uS4dwk1S0mfI39mXYLx-28" value="Read stream" style="text;strokeColor=none;fillColor=none;align=left;verticalAlign=middle;spacingLeft=4;spacingRight=4;overflow=hidden;points=[[0,0.5],[1,0.5]];portConstraint=eastwest;rotatable=0;fontSize=14;" vertex="1" parent="8uS4dwk1S0mfI39mXYLx-26">
          <mxGeometry y="60" width="140" height="30" as="geometry" />
        </mxCell>
        <mxCell id="8uS4dwk1S0mfI39mXYLx-41" value="Monitor using UI" style="text;strokeColor=none;fillColor=none;align=left;verticalAlign=middle;spacingLeft=4;spacingRight=4;overflow=hidden;points=[[0,0.5],[1,0.5]];portConstraint=eastwest;rotatable=0;fontSize=14;" vertex="1" parent="8uS4dwk1S0mfI39mXYLx-26">
          <mxGeometry y="90" width="140" height="30" as="geometry" />
        </mxCell>
        <mxCell id="8uS4dwk1S0mfI39mXYLx-30" value="2. Sliding window" style="swimlane;fontStyle=0;childLayout=stackLayout;horizontal=1;startSize=30;horizontalStack=0;resizeParent=1;resizeParentMax=0;resizeLast=0;collapsible=1;marginBottom=0;fontSize=14;" vertex="1" parent="1">
          <mxGeometry x="290" y="140" width="140" height="150" as="geometry" />
        </mxCell>
        <mxCell id="8uS4dwk1S0mfI39mXYLx-31" value="Define:&#xa;window length, sliding interval, batch interval" style="text;strokeColor=none;fillColor=none;align=left;verticalAlign=middle;spacingLeft=4;spacingRight=4;overflow=hidden;points=[[0,0.5],[1,0.5]];portConstraint=eastwest;rotatable=0;fontSize=14;whiteSpace=wrap;" vertex="1" parent="8uS4dwk1S0mfI39mXYLx-30">
          <mxGeometry y="30" width="140" height="80" as="geometry" />
        </mxCell>
        <mxCell id="8uS4dwk1S0mfI39mXYLx-32" value="Read stream in batches" style="text;strokeColor=none;fillColor=none;align=left;verticalAlign=middle;spacingLeft=4;spacingRight=4;overflow=hidden;points=[[0,0.5],[1,0.5]];portConstraint=eastwest;rotatable=0;fontSize=14;whiteSpace=wrap;" vertex="1" parent="8uS4dwk1S0mfI39mXYLx-30">
          <mxGeometry y="110" width="140" height="40" as="geometry" />
        </mxCell>
        <mxCell id="8uS4dwk1S0mfI39mXYLx-33" value="3. Apply logic" style="swimlane;fontStyle=0;childLayout=stackLayout;horizontal=1;startSize=30;horizontalStack=0;resizeParent=1;resizeParentMax=0;resizeLast=0;collapsible=1;marginBottom=0;fontSize=14;" vertex="1" parent="1">
          <mxGeometry x="470" y="140" width="140" height="140" as="geometry" />
        </mxCell>
        <mxCell id="8uS4dwk1S0mfI39mXYLx-34" value="Define useful columns" style="text;strokeColor=none;fillColor=none;align=left;verticalAlign=middle;spacingLeft=4;spacingRight=4;overflow=hidden;points=[[0,0.5],[1,0.5]];portConstraint=eastwest;rotatable=0;fontSize=14;whiteSpace=wrap;" vertex="1" parent="8uS4dwk1S0mfI39mXYLx-33">
          <mxGeometry y="30" width="140" height="40" as="geometry" />
        </mxCell>
        <mxCell id="8uS4dwk1S0mfI39mXYLx-35" value="Create columns with relationships (e.g. sum, average)" style="text;strokeColor=none;fillColor=none;align=left;verticalAlign=middle;spacingLeft=4;spacingRight=4;overflow=hidden;points=[[0,0.5],[1,0.5]];portConstraint=eastwest;rotatable=0;fontSize=14;whiteSpace=wrap;" vertex="1" parent="8uS4dwk1S0mfI39mXYLx-33">
          <mxGeometry y="70" width="140" height="70" as="geometry" />
        </mxCell>
        <mxCell id="8uS4dwk1S0mfI39mXYLx-37" value="4. Output to OSS" style="swimlane;fontStyle=0;childLayout=stackLayout;horizontal=1;startSize=30;horizontalStack=0;resizeParent=1;resizeParentMax=0;resizeLast=0;collapsible=1;marginBottom=0;fontSize=14;" vertex="1" parent="1">
          <mxGeometry x="660" y="140" width="140" height="110" as="geometry" />
        </mxCell>
        <mxCell id="8uS4dwk1S0mfI39mXYLx-38" value="Write stream to AliCloud as parquet " style="text;strokeColor=none;fillColor=none;align=left;verticalAlign=middle;spacingLeft=4;spacingRight=4;overflow=hidden;points=[[0,0.5],[1,0.5]];portConstraint=eastwest;rotatable=0;fontSize=14;whiteSpace=wrap;" vertex="1" parent="8uS4dwk1S0mfI39mXYLx-37">
          <mxGeometry y="30" width="140" height="40" as="geometry" />
        </mxCell>
        <mxCell id="8uS4dwk1S0mfI39mXYLx-40" value="**Performance issue" style="text;strokeColor=none;fillColor=none;align=left;verticalAlign=middle;spacingLeft=4;spacingRight=4;overflow=hidden;points=[[0,0.5],[1,0.5]];portConstraint=eastwest;rotatable=0;fontSize=14;whiteSpace=wrap;" vertex="1" parent="8uS4dwk1S0mfI39mXYLx-37">
          <mxGeometry y="70" width="140" height="40" as="geometry" />
        </mxCell>
        <mxCell id="8uS4dwk1S0mfI39mXYLx-43" value="SparkContext" style="rounded=0;whiteSpace=wrap;html=1;fontSize=12;" vertex="1" parent="1">
          <mxGeometry x="80" y="410" width="120" height="60" as="geometry" />
        </mxCell>
        <mxCell id="8uS4dwk1S0mfI39mXYLx-44" value="StreamingContext" style="rounded=0;whiteSpace=wrap;html=1;fontSize=12;" vertex="1" parent="1">
          <mxGeometry x="80" y="490" width="120" height="60" as="geometry" />
        </mxCell>
        <mxCell id="8uS4dwk1S0mfI39mXYLx-45" value="SparkSession" style="rounded=0;whiteSpace=wrap;html=1;fontSize=12;" vertex="1" parent="1">
          <mxGeometry x="80" y="330" width="120" height="60" as="geometry" />
        </mxCell>
        <mxCell id="8uS4dwk1S0mfI39mXYLx-46" value="&lt;p style=&quot;box-sizing: border-box ; margin-top: 0px ; margin-bottom: 1.15rem ; font-size: 15px ; color: rgb(51 , 51 , 51) ; font-family: &amp;#34;source sans pro&amp;#34; , sans-serif ; text-align: left ; background-color: rgb(255 , 255 , 255)&quot;&gt;Main entry point for Spark functionality. A SparkContext represents the connection to a Spark cluster, and can be used to create&amp;nbsp;&lt;a class=&quot;reference internal&quot; href=&quot;https://spark.apache.org/docs/latest/api/python/reference/api/pyspark.RDD.html#pyspark.RDD&quot; title=&quot;pyspark.RDD&quot; style=&quot;box-sizing: border-box ; color: rgb(0 , 91 , 129) ; background-color: transparent&quot;&gt;&lt;code class=&quot;xref py py-class docutils literal notranslate&quot; style=&quot;box-sizing: border-box ; font-family: , &amp;#34;menlo&amp;#34; , &amp;#34;monaco&amp;#34; , &amp;#34;consolas&amp;#34; , &amp;#34;liberation mono&amp;#34; , &amp;#34;courier new&amp;#34; , monospace ; font-size: 13.125px ; color: inherit ; overflow-wrap: break-word ; background-color: transparent ; font-weight: bold&quot;&gt;&lt;span class=&quot;pre&quot; style=&quot;box-sizing: border-box&quot;&gt;RDD&lt;/span&gt;&lt;/code&gt;&lt;/a&gt;&amp;nbsp;and broadcast variables on that cluster.&lt;/p&gt;" style="rounded=0;whiteSpace=wrap;html=1;fontSize=12;" vertex="1" parent="1">
          <mxGeometry x="214" y="410" width="636" height="60" as="geometry" />
        </mxCell>
        <mxCell id="8uS4dwk1S0mfI39mXYLx-47" value="&lt;span style=&quot;color: rgb(51 , 51 , 51) ; font-family: &amp;#34;source sans pro&amp;#34; , sans-serif ; font-size: 15px ; text-align: left ; background-color: rgb(255 , 255 , 255)&quot;&gt;Main entry point for Spark Streaming functionality. A StreamingContext represents the connection to a Spark cluster, and can be used to create&amp;nbsp;&lt;/span&gt;&lt;a class=&quot;reference internal&quot; href=&quot;https://spark.apache.org/docs/latest/api/python/reference/api/pyspark.streaming.DStream.html#pyspark.streaming.DStream&quot; title=&quot;pyspark.streaming.DStream&quot; style=&quot;box-sizing: border-box ; color: rgb(0 , 91 , 129) ; background-color: rgb(255 , 255 , 255) ; font-family: &amp;#34;source sans pro&amp;#34; , sans-serif ; font-size: 15px ; text-align: left&quot;&gt;&lt;code class=&quot;xref py py-class docutils literal notranslate&quot; style=&quot;box-sizing: border-box ; font-family: , &amp;#34;menlo&amp;#34; , &amp;#34;monaco&amp;#34; , &amp;#34;consolas&amp;#34; , &amp;#34;liberation mono&amp;#34; , &amp;#34;courier new&amp;#34; , monospace ; font-size: 13.125px ; color: inherit ; overflow-wrap: break-word ; background-color: transparent ; font-weight: bold&quot;&gt;&lt;span class=&quot;pre&quot; style=&quot;box-sizing: border-box&quot;&gt;DStream&lt;/span&gt;&lt;/code&gt;&lt;/a&gt;&lt;span style=&quot;color: rgb(51 , 51 , 51) ; font-family: &amp;#34;source sans pro&amp;#34; , sans-serif ; font-size: 15px ; text-align: left ; background-color: rgb(255 , 255 , 255)&quot;&gt;&amp;nbsp;various input sources. It can be from an existing&amp;nbsp;&lt;/span&gt;&lt;code class=&quot;xref py py-class docutils literal notranslate&quot; style=&quot;box-sizing: border-box ; font-family: , &amp;#34;menlo&amp;#34; , &amp;#34;monaco&amp;#34; , &amp;#34;consolas&amp;#34; , &amp;#34;liberation mono&amp;#34; , &amp;#34;courier new&amp;#34; , monospace ; font-size: 13.125px ; color: rgb(232 , 62 , 140) ; overflow-wrap: break-word ; background-color: rgb(255 , 255 , 255) ; font-weight: bold ; text-align: left&quot;&gt;&lt;span class=&quot;pre&quot; style=&quot;box-sizing: border-box&quot;&gt;SparkContext&lt;/span&gt;&lt;/code&gt;&lt;span style=&quot;color: rgb(51 , 51 , 51) ; font-family: &amp;#34;source sans pro&amp;#34; , sans-serif ; font-size: 15px ; text-align: left ; background-color: rgb(255 , 255 , 255)&quot;&gt;.&lt;/span&gt;" style="rounded=0;whiteSpace=wrap;html=1;fontSize=12;" vertex="1" parent="1">
          <mxGeometry x="214" y="490" width="636" height="60" as="geometry" />
        </mxCell>
        <mxCell id="8uS4dwk1S0mfI39mXYLx-48" value="&lt;p style=&quot;box-sizing: border-box ; margin-top: 0px ; margin-bottom: 1.15rem ; font-size: 15px ; color: rgb(51 , 51 , 51) ; font-family: &amp;#34;source sans pro&amp;#34; , sans-serif ; text-align: left ; background-color: rgb(255 , 255 , 255)&quot;&gt;The entry point to programming Spark with the Dataset and DataFrame API. A&amp;nbsp;&lt;span class=&quot;highlighted&quot; style=&quot;box-sizing: border-box ; background-color: rgb(251 , 229 , 78)&quot;&gt;SparkSession&lt;/span&gt;&amp;nbsp;can be used create&amp;nbsp;&lt;a class=&quot;reference internal&quot; href=&quot;https://spark.apache.org/docs/latest/api/python/reference/api/pyspark.sql.DataFrame.html#pyspark.sql.DataFrame&quot; title=&quot;pyspark.sql.DataFrame&quot; style=&quot;box-sizing: border-box ; color: rgb(0 , 91 , 129) ; background-color: transparent&quot;&gt;&lt;code class=&quot;xref py py-class docutils literal notranslate&quot; style=&quot;box-sizing: border-box ; font-family: , &amp;#34;menlo&amp;#34; , &amp;#34;monaco&amp;#34; , &amp;#34;consolas&amp;#34; , &amp;#34;liberation mono&amp;#34; , &amp;#34;courier new&amp;#34; , monospace ; font-size: 13.125px ; color: inherit ; overflow-wrap: break-word ; background-color: transparent ; font-weight: bold&quot;&gt;&lt;span class=&quot;pre&quot; style=&quot;box-sizing: border-box&quot;&gt;DataFrame&lt;/span&gt;&lt;/code&gt;&lt;/a&gt;, register&amp;nbsp;&lt;a class=&quot;reference internal&quot; href=&quot;https://spark.apache.org/docs/latest/api/python/reference/api/pyspark.sql.DataFrame.html#pyspark.sql.DataFrame&quot; title=&quot;pyspark.sql.DataFrame&quot; style=&quot;box-sizing: border-box ; color: rgb(0 , 91 , 129) ; background-color: transparent&quot;&gt;&lt;code class=&quot;xref py py-class docutils literal notranslate&quot; style=&quot;box-sizing: border-box ; font-family: , &amp;#34;menlo&amp;#34; , &amp;#34;monaco&amp;#34; , &amp;#34;consolas&amp;#34; , &amp;#34;liberation mono&amp;#34; , &amp;#34;courier new&amp;#34; , monospace ; font-size: 13.125px ; color: inherit ; overflow-wrap: break-word ; background-color: transparent ; font-weight: bold&quot;&gt;&lt;span class=&quot;pre&quot; style=&quot;box-sizing: border-box&quot;&gt;DataFrame&lt;/span&gt;&lt;/code&gt;&lt;/a&gt;&amp;nbsp;as tables, execute SQL over tables, cache tables, and read parquet files.&amp;nbsp;&lt;/p&gt;" style="rounded=0;whiteSpace=wrap;html=1;fontSize=12;" vertex="1" parent="1">
          <mxGeometry x="214" y="330" width="626" height="60" as="geometry" />
        </mxCell>
        <mxCell id="8uS4dwk1S0mfI39mXYLx-49" value="Transforming&lt;br&gt;DStream" style="rounded=0;whiteSpace=wrap;html=1;fontSize=12;" vertex="1" parent="1">
          <mxGeometry x="80" y="570" width="120" height="60" as="geometry" />
        </mxCell>
        <mxCell id="8uS4dwk1S0mfI39mXYLx-50" value="Window Operation" style="rounded=0;whiteSpace=wrap;html=1;fontSize=12;" vertex="1" parent="1">
          <mxGeometry x="80" y="640" width="120" height="60" as="geometry" />
        </mxCell>
        <mxCell id="8uS4dwk1S0mfI39mXYLx-51" value="&lt;div style=&quot;text-align: left&quot;&gt;&lt;font color=&quot;#333333&quot; face=&quot;source sans pro, sans-serif&quot;&gt;&lt;span style=&quot;font-size: 15px ; background-color: rgb(255 , 255 , 255)&quot;&gt;e.g. map, filter, union, count, reduce, ...&lt;/span&gt;&lt;/font&gt;&lt;/div&gt;" style="rounded=0;whiteSpace=wrap;html=1;fontSize=12;" vertex="1" parent="1">
          <mxGeometry x="214" y="570" width="636" height="60" as="geometry" />
        </mxCell>
      </root>
    </mxGraphModel>
  </diagram>
</mxfile>
